<svg width="500" height="500" viewBox="0 0 500 500" fill="none" xmlns="http://www.w3.org/2000/svg">
<rect width="500" height="500" rx="64" fill="white"/>
<path d="M431.65 225.693C428.207 222.923 424.183 220.966 419.877 219.97C415.572 218.974 411.097 218.964 406.787 219.941C400.312 221.443 393.582 221.471 387.095 220.021C380.608 218.572 374.53 215.682 369.311 211.567C364.091 207.452 359.863 202.216 356.94 196.247C354.016 190.277 352.472 183.727 352.422 177.08C352.373 169.271 349.249 161.795 343.727 156.273C338.205 150.751 330.729 147.627 322.92 147.578C316.273 147.528 309.723 145.984 303.753 143.06C297.784 140.137 292.548 135.909 288.433 130.689C284.317 125.469 281.428 119.391 279.979 112.904C278.529 106.418 278.556 99.6878 280.058 93.2129C280.996 88.8758 280.955 84.3843 279.939 80.0649C278.923 75.7455 276.958 71.7066 274.186 68.2417C271.414 64.7768 267.905 61.9729 263.914 60.0338C259.923 58.0946 255.55 57.0689 251.113 57.0312H250C224.556 57.0553 199.368 62.106 175.882 71.8934C152.396 81.6808 131.075 96.012 113.144 114.064C95.2131 132.115 81.0253 153.532 71.3957 177.083C61.7661 200.634 56.8844 225.856 57.0311 251.299C57.3509 302.477 77.9883 351.433 114.403 387.395C132.434 405.202 153.795 419.283 177.268 428.834C200.741 438.385 225.865 443.22 251.206 443.062C276.547 442.903 301.609 437.755 324.96 427.911C348.311 418.067 369.495 403.72 387.302 385.69C405.109 367.659 419.19 346.297 428.741 322.824C438.293 299.352 443.127 274.228 442.969 248.887C442.991 244.411 441.981 239.991 440.018 235.968C438.055 231.946 435.192 228.43 431.65 225.693ZM152.588 197.119C155.705 194.013 159.672 191.9 163.989 191.047C168.306 190.194 172.779 190.64 176.843 192.327C180.907 194.015 184.38 196.869 186.823 200.529C189.266 204.188 190.57 208.49 190.57 212.891C190.57 217.291 189.266 221.593 186.823 225.253C184.38 228.913 180.907 231.766 176.843 233.454C172.779 235.142 168.306 235.587 163.989 234.734C159.672 233.881 155.705 231.768 152.588 228.662C150.512 226.594 148.865 224.136 147.741 221.429C146.617 218.723 146.039 215.821 146.039 212.891C146.039 209.96 146.617 207.059 147.741 204.352C148.865 201.646 150.512 199.188 152.588 197.119ZM198.974 332.568C195.857 335.675 191.89 337.787 187.573 338.64C183.256 339.493 178.783 339.048 174.719 337.36C170.655 335.673 167.182 332.819 164.739 329.159C162.296 325.499 160.992 321.197 160.992 316.797C160.992 312.396 162.296 308.095 164.739 304.435C167.182 300.775 170.655 297.921 174.719 296.234C178.783 294.546 183.256 294.101 187.573 294.953C191.89 295.806 195.857 297.919 198.974 301.025C201.05 303.094 202.697 305.552 203.821 308.258C204.945 310.965 205.523 313.866 205.523 316.797C205.523 319.727 204.945 322.629 203.821 325.335C202.697 328.042 201.05 330.5 198.974 332.568ZM249.072 258.35C245.966 255.233 243.853 251.265 243 246.948C242.147 242.631 242.593 238.158 244.28 234.094C245.968 230.03 248.822 226.557 252.482 224.114C256.141 221.671 260.443 220.367 264.844 220.367C269.244 220.367 273.546 221.671 277.206 224.114C280.866 226.557 283.719 230.03 285.407 234.094C287.094 238.158 287.54 242.631 286.687 246.948C285.834 251.265 283.721 255.233 280.615 258.35C278.547 260.425 276.089 262.072 273.382 263.196C270.676 264.32 267.774 264.898 264.844 264.898C261.913 264.898 259.011 264.32 256.305 263.196C253.599 262.072 251.141 260.425 249.072 258.35ZM317.724 347.412C314.607 350.518 310.64 352.631 306.323 353.484C302.006 354.337 297.533 353.892 293.469 352.204C289.405 350.517 285.932 347.663 283.489 344.003C281.046 340.343 279.742 336.041 279.742 331.641C279.742 327.24 281.046 322.938 283.489 319.279C285.932 315.619 289.405 312.765 293.469 311.077C297.533 309.39 302.006 308.944 306.323 309.797C310.64 310.65 314.607 312.763 317.724 315.869C319.8 317.938 321.447 320.396 322.571 323.102C323.695 325.809 324.273 328.71 324.273 331.641C324.273 334.571 323.695 337.473 322.571 340.179C321.447 342.886 319.8 345.344 317.724 347.412Z" fill="url(#paint0_linear_247_236)"/>
<defs>
<linearGradient id="paint0_linear_247_236" x1="443.117" y1="249.875" x2="73.9588" y2="126.285" gradientUnits="userSpaceOnUse">
<stop stop-color="#F89E1B"/>
<stop offset="1" stop-color="#FFCF02"/>
</linearGradient>
</defs>
</svg>
